<svg width="194" height="63" viewBox="0 0 194 63" fill="none" xmlns="http://www.w3.org/2000/svg">
<path d="M54.0532 0.664062L84.8935 31.5043L55.3797 62.0129H94.8419V0.664062H54.0532Z" fill="#293036"/>
<path d="M76.9347 31.1712L46.7577 0.994141L15.9175 31.1712L26.5292 41.7828H34.1563V34.1557L31.1718 31.1712L46.0945 16.2485L61.0172 31.1712L38.7989 53.3894L46.7577 61.3482L76.9347 31.1712Z" fill="#007EDD"/>
<path d="M0 31.1719L30.8402 0L39.1306 8.622L16.2492 31.1719L30.5086 45.7629L45.4313 30.8402L42.7784 28.1873V19.8969L50.7372 20.5602L61.3489 31.1719L30.8402 61.6805L0 31.1719Z" fill="#293036"/>
<rect x="99.4849" y="47.752" width="8.622" height="5.30585" fill="#293036"/>
<path fill-rule="evenodd" clip-rule="evenodd" d="M131 32H108V39H116.065V59.0274H123.361V39H131V32Z" fill="#293036"/>
<path fill-rule="evenodd" clip-rule="evenodd" d="M117.392 3.31641H100.811V9.28525H100.811V30.5086H108.107V10.6119H117.392V3.31641Z" fill="#007EDD"/>
<rect x="144.584" y="41.7832" width="4.64262" height="17.244" fill="#293036"/>
<path fill-rule="evenodd" clip-rule="evenodd" d="M162.492 37.1406H164.813C165.034 37.5828 165.742 38.4671 166.803 38.4671C167.864 38.4671 168.793 37.5828 169.124 37.1406H171.114C171.224 38.4671 170.451 41.12 167.002 41.12C163.553 41.12 162.602 38.4671 162.492 37.1406ZM163.818 41.7834H159.176V59.0274L163.818 59.0274L163.818 59.0274V59.0271L169.787 49.8606V59.0274H174.43V41.7834H169.787L163.818 50.8396V41.7834Z" fill="#293036"/>
<path fill-rule="evenodd" clip-rule="evenodd" d="M158 14H163.179V19.9195H169.099V14.0002H174.278V31.0182H169.099V24.359H163.179V31.018H158V14Z" fill="#007EDD"/>
<path fill-rule="evenodd" clip-rule="evenodd" d="M141.919 14H147.099L147.099 14.0002H149.318L155.238 31.0182H150.058L149.029 28.0587H142.209L141.179 31.018H136L141.919 14ZM143.753 23.6192H147.485L145.619 18.2548L143.753 23.6192Z" fill="#007EDD"/>
<path fill-rule="evenodd" clip-rule="evenodd" d="M193.278 14H177V18.4395H182.919V31.0182H188.098V18.4395H193.278V14Z" fill="#007EDD"/>
<rect x="149.227" y="41.7832" width="7.95877" height="3.97939" fill="#293036"/>
<path fill-rule="evenodd" clip-rule="evenodd" d="M179.072 41.7832H189.684V41.7833H191.674V54.3848H193V62.3435H189.02V59.0273H179.735V62.3435H175.756V54.3847H177.515C178.296 52.8833 179.072 50.0193 179.072 45.0988H179.072V41.7832ZM181.656 54.3847H187.031V45.7626H183.048C183.016 47.7798 182.695 51.5854 181.656 54.3847Z" fill="#293036"/>
<path fill-rule="evenodd" clip-rule="evenodd" d="M149.227 41.7832H157.186V45.7626H149.227V48.4155H156.523V52.3949H149.227V55.0478H157.186V59.0272H149.227V59.0281H144.584V41.7841H149.227V41.7832Z" fill="#293036"/>
<path fill-rule="evenodd" clip-rule="evenodd" d="M132.978 41.7832H138.284C139.5 41.7832 142.595 42.977 142.595 47.7523C142.595 52.5275 139.5 53.7214 138.284 53.7214H133.973V59.0281H129.994V41.7841H132.978V41.7832ZM133.973 45.7626V50.0736H135.963C136.405 50.0736 137.952 49.6093 137.952 47.7523C137.952 45.8952 136.405 45.6521 135.963 45.7626H133.973Z" fill="#293036"/>
<path fill-rule="evenodd" clip-rule="evenodd" d="M124.179 14H119V31.018H124.179V25.8388H128.747C129.963 25.8388 133.058 24.6549 133.058 19.9195C133.058 15.184 129.963 14.0002 128.747 14.0002H124.179V14ZM124.179 17.9464V22.2214H126.425C126.867 22.2214 128.415 21.761 128.415 19.9195C128.415 18.0779 126.867 17.8368 126.425 17.9464H124.179Z" fill="#007EDD"/>
</svg>
