<svg width="178" height="58" viewBox="0 0 178 58" fill="none" xmlns="http://www.w3.org/2000/svg">
<path d="M49.8521 0.611328L78.2954 29.0546L51.0754 57.1921H87.4706V0.611328H49.8521Z" fill="white"/>
<path d="M70.9551 28.7496L43.1235 0.917969L14.6802 28.7496L24.4671 38.5365H31.5015V31.5022L28.7489 28.7496L42.5118 14.9867L56.2747 28.7496L35.7833 49.241L43.1235 56.5812L70.9551 28.7496Z" fill="#8D8D8D"/>
<path d="M0 28.7491L28.4433 0L36.0894 7.95189L14.9863 28.7491L28.1375 42.2062L41.9004 28.4433L39.4536 25.9966V18.3505L46.7938 18.9622L56.5808 28.7491L28.4433 56.8866L0 28.7491Z" fill="white"/>
<rect x="91.7524" y="44.041" width="7.95189" height="4.89347" fill="white"/>
<path fill-rule="evenodd" clip-rule="evenodd" d="M121.114 29.9727H99.7046V34.8661H107.045V54.4399H113.773V34.8661H121.114V29.9727Z" fill="white"/>
<path fill-rule="evenodd" clip-rule="evenodd" d="M108.268 3.05859H92.9763V8.56354H92.9761V28.1374H99.7046V9.78712H108.268V3.05859Z" fill="white"/>
<rect x="133.347" y="38.5352" width="4.28179" height="15.9038" fill="white"/>
<path fill-rule="evenodd" clip-rule="evenodd" d="M149.863 34.2539H152.004C152.207 34.6617 152.86 35.4773 153.839 35.4773C154.817 35.4773 155.674 34.6617 155.979 34.2539H157.814C157.916 35.4773 157.203 37.924 154.022 37.924C150.841 37.924 149.965 35.4773 149.863 34.2539ZM151.086 38.5358H146.804V54.4396L151.086 54.4396L151.086 54.4396V54.4396L156.591 45.9853V54.4396H160.873V38.5358H156.591L151.086 46.8884V38.5358Z" fill="white"/>
<path fill-rule="evenodd" clip-rule="evenodd" d="M143.134 14.0684H147.416V18.962H152.31V14.0685H156.591V28.1372H152.31V22.6321H147.416V28.1371H143.134V14.0684Z" fill="white"/>
<path fill-rule="evenodd" clip-rule="evenodd" d="M127.842 14.0684H132.124L132.123 14.0685H133.959L138.852 28.1372H134.57L133.719 25.6906H128.081L127.23 28.1371H122.948L127.842 14.0684ZM129.358 22.0205H132.443L130.9 17.5856L129.358 22.0205Z" fill="white"/>
<path fill-rule="evenodd" clip-rule="evenodd" d="M175.553 14.0684H162.096V17.7385H166.99V28.1372H171.271V17.7385H175.553V14.0684Z" fill="white"/>
<rect x="137.629" y="38.5352" width="7.34021" height="3.6701" fill="white"/>
<path fill-rule="evenodd" clip-rule="evenodd" d="M176.777 38.5352H174.942H172.495H165.155V41.6235C165.151 46.1429 164.437 48.7756 163.719 50.1573H162.096V57.4975H165.766V54.439H174.33V57.4975H178V50.1573H176.777V38.5352ZM172.495 50.1573V42.2053H168.822C168.793 44.0657 168.497 47.5755 167.538 50.1573H172.495Z" fill="white"/>
<path fill-rule="evenodd" clip-rule="evenodd" d="M137.629 38.5352H144.969V42.2053H137.629V44.652H144.357V48.3221H137.629V50.7688H144.969V54.4389H137.629V54.4399H133.347V38.5361H137.629V38.5352Z" fill="white"/>
<path fill-rule="evenodd" clip-rule="evenodd" d="M122.643 38.5352H127.536C128.658 38.5352 131.512 39.6362 131.512 44.0403C131.512 48.4444 128.658 49.5455 127.536 49.5455H123.56V54.4399H119.89V38.5361H122.643V38.5352ZM123.56 42.2053V46.1812H125.395C125.803 46.1812 127.23 45.753 127.23 44.0403C127.23 42.3276 125.803 42.1033 125.395 42.2053H123.56Z" fill="white"/>
<path fill-rule="evenodd" clip-rule="evenodd" d="M112.55 14.0684H108.268V28.1371H112.55V23.8555H116.325C117.331 23.8555 119.89 22.8768 119.89 18.962C119.89 15.0472 117.331 14.0685 116.325 14.0685H112.55V14.0684ZM112.55 17.3308V20.865H114.406C114.772 20.865 116.051 20.4844 116.051 18.962C116.051 17.4396 114.772 17.2402 114.406 17.3308H112.55Z" fill="white"/>
</svg>
